<svg width="64" height="64" viewBox="0 0 64 64" fill="none" xmlns="http://www.w3.org/2000/svg">
    <defs>
        <linearGradient id="bg-gradient" x1="0" y1="0" x2="64" y2="64" gradientUnits="userSpaceOnUse">
            <stop stop-color="#c026d3" />
            <stop offset="1" stop-color="#701a75" />
        </linearGradient>

        <filter id="shadow" x="-20%" y="-20%" width="140%" height="140%">
            <feDropShadow dx="0" dy="4" stdDeviation="6" flood-color="#d946ef" flood-opacity="0.3" />
        </filter>
    </defs>

    <rect x="0" y="0" width="64" height="64" rx="16" fill="url(#bg-gradient)" filter="url(#shadow)" />

    <rect x="0.5" y="0.5" width="63" height="63" rx="15.5" stroke="white" stroke-opacity="0.1" fill="none"
        pointer-events="none" />

    <g transform="translate(12, 12) scale(1.66)">
        <path fill="white"
            d="M12 2.25c-5.385 0-9.75 4.365-9.75 9.75a9.75 9.75 0 001.015 4.353l-1.015 3.382a.75.75 0 00.942.942l3.382-1.015A9.75 9.75 0 0012 21.75c5.385 0 9.75-4.365 9.75-9.75S17.385 2.25 12 2.25z" />

        <path transform="scale(1.2)" transform-origin="15 15" fill="#facc15" fill-rule="evenodd" clip-rule="evenodd"
            d="M14.615 8.25a.75.75 0 01.75.75v.75h.75a.75.75 0 010 1.5h-.75v.75a.75.75 0 01-1.5 0v-.75h-.75a.75.75 0 010-1.5h.75V9a.75.75 0 01.75-.75z" />
    </g>
</svg>